 <svg
      width="25"
      height="25"
      viewBox="0 0 25 25"
      fill="none"
      xmlns="http://www.w3.org/2000/svg"
    >
      <path
        d="M21.6101 3.46721C21.2033 3.06041 20.5437 3.06041 20.137 3.46721L12.5386 11.0655L4.94037 3.46721C4.53357 3.06041 3.87402 3.06041 3.46723 3.46721C3.06043 3.874 3.06043 4.53355 3.46723 4.94035L11.0655 12.5387L3.46725 20.1369C3.06045 20.5438 3.06045 21.2032 3.46725 21.6101C3.87404 22.0169 4.53359 22.0169 4.94039 21.6101L12.5386 14.0118L20.137 21.6101C20.5437 22.0169 21.2033 22.0169 21.6101 21.6101C22.0169 21.2032 22.0169 20.5438 21.6101 20.137L14.0118 12.5387L21.6101 4.94035C22.0169 4.53355 22.0169 3.874 21.6101 3.46721Z"
        fill="#002F47"
      />
    </svg>