<svg width="170" height="34" viewBox="0 0 170 34" fill="none" xmlns="http://www.w3.org/2000/svg">
<g clip-path="url(#clip0_84_203)">
<mask id="mask0_84_203" style="mask-type:luminance" maskUnits="userSpaceOnUse" x="0" y="0" width="170" height="34">
<path d="M170 0H0V34H170V0Z" fill="white"/>
</mask>
<g mask="url(#mask0_84_203)">
<path d="M158.186 3.197H11.814C6.29115 3.197 1.814 7.67415 1.814 13.197V21.47C1.814 26.9928 6.29115 31.47 11.814 31.47H158.186C163.709 31.47 168.186 26.9928 168.186 21.47V13.197C168.186 7.67415 163.709 3.197 158.186 3.197Z" fill="#002F47"/>
<path d="M16.209 20.067C15.9865 20.4706 15.658 20.8059 15.2591 21.0367C14.8602 21.2675 14.4058 21.3852 13.945 21.377C12.922 21.377 12.019 20.784 12.165 19.837L12.865 14.83C12.9931 14.3483 13.2857 13.9267 13.6921 13.6381C14.0985 13.3495 14.593 13.2122 15.09 13.25C15.5091 13.2166 15.9285 13.3109 16.293 13.5205C16.6575 13.73 16.95 14.045 17.132 14.424L20.28 13.211C20.0087 12.2088 19.4017 11.33 18.5605 10.7214C17.7193 10.1128 16.6948 9.81123 15.658 9.867C12.758 9.867 9.64801 11.554 9.20301 14.834L8.50301 19.841C8.05501 23.144 10.672 24.804 13.513 24.804C14.6602 24.7885 15.7845 24.4803 16.7792 23.9085C17.7739 23.3368 18.6062 22.5205 19.197 21.537L16.209 20.067ZM20.359 19.82C19.888 23.147 22.65 24.807 25.652 24.807C28.8 24.807 31.888 23.147 32.352 19.82L33.069 14.853C33.54 11.533 30.758 9.866 27.757 9.866C24.756 9.866 21.572 11.51 21.072 14.85L20.359 19.82ZM24.735 14.853C24.894 13.766 26.183 13.213 27.371 13.213C28.559 13.213 29.571 13.766 29.41 14.853L28.699 19.72C28.533 20.867 27.245 21.4 26.063 21.4C24.954 21.4 23.872 20.867 24.018 19.82L24.735 14.853ZM39.235 10.073H35.535L34.192 19.697C33.727 23.097 36.337 24.804 39.239 24.804C42.121 24.804 45.269 23.097 45.739 19.697L47.088 10.067H43.388L42.041 19.697C41.9394 20.2216 41.6469 20.6899 41.22 21.0113C40.7931 21.3327 40.2622 21.4844 39.73 21.437C38.687 21.437 37.73 20.864 37.891 19.697L39.235 10.073ZM55.163 24.597H59.718L56.245 19.61C58.224 18.67 59.373 17.763 59.738 15.077C60.15 11.67 58.025 10.07 55.038 10.07H49.253L47.234 24.597H50.934L51.565 19.984H52.222L55.163 24.597ZM52.015 16.824L52.486 13.497H54.632C54.8421 13.4785 55.0536 13.5104 55.2489 13.5901C55.4443 13.6697 55.6177 13.7948 55.755 13.955C55.8926 14.1155 55.9901 14.3063 56.0396 14.5117C56.0892 14.7172 56.0893 14.9315 56.04 15.137C55.9961 15.6029 55.7784 16.0351 55.4302 16.3477C55.082 16.6603 54.6289 16.8303 54.161 16.824H52.015ZM72.223 13.417L72.714 10.05H61.214L60.723 13.417H64.623L63.092 24.597H66.792L68.326 13.417H72.223ZM79.993 20.064C79.7694 20.4685 79.4399 20.8045 79.0398 21.0358C78.6397 21.2671 78.1841 21.3851 77.722 21.377C76.699 21.377 75.803 20.784 75.942 19.837L76.642 14.83C76.771 14.3488 77.0638 13.9278 77.47 13.6393C77.8762 13.3509 78.3702 13.2132 78.867 13.25C79.2866 13.2151 79.7069 13.3086 80.0722 13.5181C80.4374 13.7276 80.7303 14.0432 80.912 14.423L84.06 13.21C83.7889 12.2083 83.1824 11.33 82.3418 10.7216C81.5011 10.1131 80.4772 9.81151 79.441 9.867C76.541 9.867 73.431 11.554 72.98 14.834L72.289 19.841C71.837 23.148 74.454 24.808 77.289 24.808C78.4364 24.7919 79.5608 24.483 80.5553 23.9106C81.5499 23.3381 82.3817 22.5211 82.972 21.537L79.993 20.064ZM84.137 19.817C83.672 23.144 86.427 24.804 89.429 24.804C92.577 24.804 95.665 23.144 96.136 19.817L96.847 14.85C97.318 11.53 94.547 9.863 91.535 9.863C88.523 9.863 85.346 11.51 84.855 14.85L84.137 19.817ZM88.513 14.85C88.679 13.763 89.961 13.21 91.149 13.21C92.337 13.21 93.349 13.763 93.194 14.85L92.472 19.717C92.306 20.864 91.018 21.397 89.836 21.397C88.736 21.397 87.651 20.864 87.791 19.817L88.513 14.85ZM97.404 24.597H101.056L101.856 18.79L101.816 15.983L101.902 15.956L102.759 18.869L105.229 24.596H108.929L110.951 10.067H107.312L106.396 16.654L106.436 19.161L106.35 19.181L105.532 16.267L102.896 10.067H99.423L97.404 24.597ZM111.217 24.597H114.872L115.672 18.79L115.632 15.983L115.712 15.956L116.572 18.867L119.042 24.594H122.742L124.764 10.067H121.125L120.209 16.654L120.249 19.161L120.169 19.181L119.352 16.268L116.716 10.068H113.242L111.217 24.597ZM130.262 13.537H136.637L137.128 10.07H127.055L125.029 24.597H135.103L135.574 21.13H129.199L129.504 18.957H135.372L135.824 15.69H129.96L130.262 13.537ZM145.062 20.064C144.839 20.4689 144.51 20.8053 144.109 21.0367C143.709 21.2681 143.253 21.3857 142.791 21.377C141.768 21.377 140.872 20.784 141.018 19.837L141.709 14.83C141.84 14.3486 142.134 13.9276 142.541 13.6393C142.948 13.351 143.443 13.2133 143.94 13.25C144.359 13.2159 144.778 13.3098 145.142 13.5193C145.506 13.7288 145.798 14.0439 145.979 14.423L149.127 13.21C148.858 12.2078 148.252 11.3285 147.412 10.7193C146.572 10.11 145.548 9.80773 144.512 9.863C141.612 9.863 138.502 11.55 138.051 14.83L137.36 19.837C136.908 23.144 139.525 24.804 142.367 24.804C143.513 24.7884 144.637 24.4801 145.631 23.9083C146.624 23.3366 147.455 22.5203 148.045 21.537L145.062 20.064ZM161.062 13.417L161.553 10.05H150.053L149.562 13.417H153.462L151.924 24.597H155.624L157.158 13.417H161.062Z" fill="white"/>
</g>
</g>
<defs>
<clipPath id="clip0_84_203">
<rect width="170" height="34" fill="white"/>
</clipPath>
</defs>
</svg>
